<svg xmlns="http://www.w3.org/2000/svg" viewBox="0 0 327.52 76.78"><defs><style>.cls-1{fill:#fff;}.cls-2{opacity:0.5;}.cls-3{opacity:0.75;}</style></defs><title>invisalign_white</title><g id="Layer_2" data-name="Layer 2"><path class="cls-1" d="M302.19,35.14h5.9l.09,2.46A8.67,8.67,0,0,1,315,34.4c6.48,0,10,4,10,11V61.67h-6.13V45.59c0-3.6-2.2-5.66-5.28-5.66s-5.27,2.06-5.27,5.66V61.67h-6.13Zm-51.7,26.53h-6.13V23.1h6.13Zm13.1,0h-6.13V35.14h6.13Zm-3.07-39.2a3.84,3.84,0,1,0,3.85,3.85,3.84,3.84,0,0,0-3.85-3.85M231.34,35.14h6.06V61.67h-6.06l-.09-2.78A11.92,11.92,0,0,1,223,62.42c-7.23,0-12.59-5.82-12.59-14,0-8.67,5.8-14,12.59-14a10.65,10.65,0,0,1,8.22,3.53ZM216.7,48.4c0,5.09,3.12,8.48,7.46,8.48,3.94,0,7.47-2.86,7.47-8.48,0-5.46-3.39-8.48-7.47-8.48-4.51,0-7.46,3.6-7.46,8.48m72.75,0c0-5.53-3.49-8.48-7.45-8.48-4.74,0-7.47,3.86-7.47,8.48,0,4.88,2.94,8.48,7.47,8.48,4.16,0,7.46-3.1,7.46-8.48M295.22,59c0,11.38-6.66,15.16-14.5,15.16a20.75,20.75,0,0,1-9.49-2.1l1.52-5.27a16,16,0,0,0,7.92,2.06c4.57,0,8.43-2.93,8.43-8.19V58.87a10.82,10.82,0,0,1-8.29,3.55c-7.15,0-12.55-5.75-12.55-14,0-7.92,5.08-14,12.57-14a10.54,10.54,0,0,1,8.23,3.53l.08-2.79h6.08Z" transform="translate(-17.4 -10.01)"/><path class="cls-1" d="M154.84,35.14l6.87,16,6.83-16h6.8l-13.7,28.35L148.07,35.14Zm34.32,20.43a14.77,14.77,0,0,0,6.86,2c3,0,4.4-1.28,4.4-3s-1.1-2.82-4.41-4c-5.25-1.77-7.32-4.51-7.32-7.71,0-4.74,3.73-8.39,10-8.39A15.44,15.44,0,0,1,205.84,36l-1.37,4.75a12,12,0,0,0-5.7-1.54c-2.44,0-3.87,1.21-3.87,2.87s1.28,2.6,4.7,3.86c4.91,1.71,7,4.16,7.1,8.13,0,4.91-3.63,8.36-10.75,8.36a17.37,17.37,0,0,1-8.18-1.88ZM117,61.67h-6.13V35.14H117ZM114,22.47a3.84,3.84,0,1,0,3.83,3.85A3.84,3.84,0,0,0,114,22.47m69.68,39.2h-6.13V35.14h6.13Zm-3.06-39.2a3.84,3.84,0,1,0,3.83,3.85,3.85,3.85,0,0,0-3.83-3.85M124,35.14h5.91l.1,2.46a8.48,8.48,0,0,1,6.85-3.2c5.93,0,9.94,4,9.94,11V61.67h-6.13v-16c0-3.41-2.21-5.75-5.27-5.75s-5.26,2.3-5.26,5.75v16H124Z" transform="translate(-17.4 -10.01)"/></g><g id="Layer_3" data-name="Layer 3"><g class="cls-2"><path class="cls-1" d="M94.18,48.4A41,41,0,0,0,81.9,43.76a26.79,26.79,0,0,1,0,9.3A41,41,0,0,0,94.18,48.4Z" transform="translate(-17.4 -10.01)"/><path class="cls-1" d="M77.54,33.23a41,41,0,0,0,5.4-12,41,41,0,0,0-12,5.4A26.66,26.66,0,0,1,77.54,33.23Z" transform="translate(-17.4 -10.01)"/><path class="cls-1" d="M51.14,22.29a26.79,26.79,0,0,1,9.3,0A41,41,0,0,0,55.79,10,41,41,0,0,0,51.14,22.29Z" transform="translate(-17.4 -10.01)"/><path class="cls-1" d="M34,33.23a26.66,26.66,0,0,1,6.58-6.58,41,41,0,0,0-12-5.4A41,41,0,0,0,34,33.23Z" transform="translate(-17.4 -10.01)"/><path class="cls-1" d="M17.4,48.4A41,41,0,0,0,29.68,53a26.79,26.79,0,0,1,0-9.3A41,41,0,0,0,17.4,48.4Z" transform="translate(-17.4 -10.01)"/><path class="cls-1" d="M34,63.57a41,41,0,0,0-5.4,12,41,41,0,0,0,12-5.4A26.66,26.66,0,0,1,34,63.57Z" transform="translate(-17.4 -10.01)"/><path class="cls-1" d="M51.14,74.51a41,41,0,0,0,4.65,12.28,41,41,0,0,0,4.65-12.28,26.79,26.79,0,0,1-9.3,0Z" transform="translate(-17.4 -10.01)"/><path class="cls-1" d="M71,70.15a41,41,0,0,0,12,5.4,41,41,0,0,0-5.4-12A26.66,26.66,0,0,1,71,70.15Z" transform="translate(-17.4 -10.01)"/></g><g class="cls-3"><path class="cls-1" d="M81.9,43.76a25.77,25.77,0,0,0-4.77-.48,21.48,21.48,0,0,0-5,.57,17.09,17.09,0,0,1,0,9.12,21.5,21.5,0,0,0,5,.57,25.77,25.77,0,0,0,4.77-.48,26.79,26.79,0,0,0,0-9.3Z" transform="translate(-17.4 -10.01)"/><path class="cls-1" d="M70.59,40a21.49,21.49,0,0,0,3.91-3.11,25.76,25.76,0,0,0,3-3.71A26.66,26.66,0,0,0,71,26.66a25.77,25.77,0,0,0-3.71,3,21.48,21.48,0,0,0-3.11,3.91A17.08,17.08,0,0,1,70.59,40Z" transform="translate(-17.4 -10.01)"/><path class="cls-1" d="M55.79,21.89a26.68,26.68,0,0,0-4.65.41,25.77,25.77,0,0,0-.48,4.77,21.48,21.48,0,0,0,.57,5,17.09,17.09,0,0,1,9.12,0,21.5,21.5,0,0,0,.57-5,25.77,25.77,0,0,0-.48-4.77A26.68,26.68,0,0,0,55.79,21.89Z" transform="translate(-17.4 -10.01)"/><path class="cls-1" d="M40.62,26.65A26.66,26.66,0,0,0,34,33.23a25.77,25.77,0,0,0,3,3.71A21.48,21.48,0,0,0,41,40a17.08,17.08,0,0,1,6.45-6.45,21.5,21.5,0,0,0-3.11-3.91A25.76,25.76,0,0,0,40.62,26.65Z" transform="translate(-17.4 -10.01)"/><path class="cls-1" d="M39.41,53a17.09,17.09,0,0,1,0-9.12,21.5,21.5,0,0,0-5-.57,25.77,25.77,0,0,0-4.77.48,26.79,26.79,0,0,0,0,9.3,25.77,25.77,0,0,0,4.77.48A21.48,21.48,0,0,0,39.41,53Z" transform="translate(-17.4 -10.01)"/><path class="cls-1" d="M41,56.76a21.49,21.49,0,0,0-3.91,3.11,25.76,25.76,0,0,0-3,3.71,26.66,26.66,0,0,0,6.58,6.58,25.76,25.76,0,0,0,3.71-3,21.48,21.48,0,0,0,3.11-3.91A17.08,17.08,0,0,1,41,56.76Z" transform="translate(-17.4 -10.01)"/><path class="cls-1" d="M55.79,65.4a17,17,0,0,1-4.56-.62,21.49,21.49,0,0,0-.57,5,25.77,25.77,0,0,0,.48,4.77,26.79,26.79,0,0,0,9.3,0,25.77,25.77,0,0,0,.48-4.77,21.48,21.48,0,0,0-.57-5A17,17,0,0,1,55.79,65.4Z" transform="translate(-17.4 -10.01)"/><path class="cls-1" d="M70.59,56.76a17.08,17.08,0,0,1-6.45,6.45,21.49,21.49,0,0,0,3.11,3.91,25.77,25.77,0,0,0,3.71,3,26.66,26.66,0,0,0,6.58-6.58,25.77,25.77,0,0,0-3-3.71A21.48,21.48,0,0,0,70.59,56.76Z" transform="translate(-17.4 -10.01)"/></g><path class="cls-1" d="M72.17,43.85a19.66,19.66,0,0,0-8.72,4.56A19.65,19.65,0,0,0,72.17,53a17.09,17.09,0,0,0,0-9.12Z" transform="translate(-17.4 -10.01)"/><path class="cls-1" d="M64.15,33.6A19.66,19.66,0,0,0,61.21,43,19.65,19.65,0,0,0,70.59,40,17.08,17.08,0,0,0,64.15,33.6Z" transform="translate(-17.4 -10.01)"/><path class="cls-1" d="M51.23,32a19.66,19.66,0,0,0,4.56,8.72A19.65,19.65,0,0,0,60.35,32a17.09,17.09,0,0,0-9.12,0Z" transform="translate(-17.4 -10.01)"/><path class="cls-1" d="M41,40A19.66,19.66,0,0,0,50.37,43a19.65,19.65,0,0,0-2.94-9.38A17.08,17.08,0,0,0,41,40Z" transform="translate(-17.4 -10.01)"/><path class="cls-1" d="M39.41,43.84a17.09,17.09,0,0,0,0,9.12,19.66,19.66,0,0,0,8.72-4.56A19.65,19.65,0,0,0,39.41,43.84Z" transform="translate(-17.4 -10.01)"/><path class="cls-1" d="M47.43,63.21a19.66,19.66,0,0,0,2.94-9.39A19.65,19.65,0,0,0,41,56.76,17.08,17.08,0,0,0,47.43,63.21Z" transform="translate(-17.4 -10.01)"/><path class="cls-1" d="M51.23,64.78a17.09,17.09,0,0,0,9.12,0,19.66,19.66,0,0,0-4.56-8.72A19.65,19.65,0,0,0,51.23,64.78Z" transform="translate(-17.4 -10.01)"/><path class="cls-1" d="M64.14,63.21a17.08,17.08,0,0,0,6.45-6.45,19.66,19.66,0,0,0-9.39-2.94A19.65,19.65,0,0,0,64.14,63.21Z" transform="translate(-17.4 -10.01)"/><path class="cls-1" d="M338.37,33.58a6.56,6.56,0,1,1-6.57,6.57,6.54,6.54,0,0,1,6.57-6.57m0,12.16a5.61,5.61,0,1,0-5.41-5.6,5.42,5.42,0,0,0,5.41,5.6m-2.51-9.44h2.9c1.81,0,2.67.72,2.67,2.19a2,2,0,0,1-2,2.09L341.6,44h-1.25l-2.07-3.29H337V44h-1.16ZM337,39.72h1.2c1,0,2-.06,2-1.29,0-1.06-.92-1.18-1.71-1.18H337Z" transform="translate(-17.4 -10.01)"/></g></svg>